<svg width = "64px" height = "64px" viewBox = "0 0 512 512" fill = "#FFF">
	<g transform = "translate(0, 512) scale(0.1, -0.1)" fill = "#FFF" stroke = "none">
	<path d = "M1700 4940 c-244 -52 -444 -179 -588 -375 -102 -139 -182 -355 -182
	-495 l0 -37 -87 -17 c-172 -34 -313 -113 -435 -245 -74 -80 -147 -214 -175
	-321 -24 -89 -23 -281 1 -369 65 -240 239 -436 466 -528 129 -52 151 -53 991
	-53 l779 0 0 -125 0 -125 -103 0 c-68 0 -119 -5 -150 -16 -60 -20 -130 -83
	-151 -134 l-16 -40 -407 0 c-232 0 -435 -5 -472 -10 -121 -20 -216 -92 -267
	-204 -24 -52 -28 -76 -32 -183 l-5 -123 -291 0 c-283 0 -293 -1 -336 -22 -83
	-43 -85 -50 -88 -296 -2 -119 -1 -231 3 -249 7 -40 50 -92 88 -108 l30 -12
	-41 -23 c-22 -12 -49 -39 -61 -60 -20 -35 -21 -52 -21 -261 0 -251 5 -274 69
	-316 l34 -23 834 0 c932 0 870 -5 916 70 21 33 22 46 22 265 0 260 -4 276 -78
	324 l-37 25 28 12 c37 15 69 57 83 107 7 25 9 118 7 246 -3 231 -10 255 -78
	296 -34 19 -53 20 -477 23 l-443 3 0 102 c0 77 5 112 19 142 22 50 69 91 119
	105 23 6 201 10 463 10 l426 0 31 -48 c38 -60 95 -101 164 -119 73 -18 543
	-18 616 0 69 18 126 59 164 119 l31 48 421 0 c263 0 435 -4 459 -11 47 -13
	106 -63 123 -106 9 -20 14 -72 14 -137 l0 -105 -437 -3 c-420 -3 -439 -4 -473
	-23 -68 -41 -75 -65 -78 -296 -2 -127 1 -222 7 -246 14 -50 46 -92 83 -107
	l28 -12 -37 -25 c-74 -48 -78 -64 -78 -324 0 -219 1 -232 22 -265 46 -75 -16
	-70 916 -70 l834 0 33 23 c65 44 70 65 70 317 0 219 -1 226 -24 264 -13 22
	-38 47 -55 56 l-32 16 38 25 c70 45 74 63 71 326 -3 255 -4 257 -72 307 -26
	20 -42 21 -352 24 l-324 3 0 119 c0 96 -4 130 -21 174 -28 77 -96 148 -177
	188 l-67 33 -453 3 -453 3 -15 40 c-20 49 -100 122 -152 137 -21 7 -87 12
	-146 12 l-106 0 0 125 0 124 808 3 c802 4 807 4 880 26 222 68 390 208 487
	407 59 121 78 204 78 340 -2 269 -131 501 -363 647 -103 66 -214 101 -358 116
	l-73 7 -27 80 c-115 341 -440 588 -807 611 -173 12 -383 -44 -535 -142 -26
	-16 -26 -16 -135 92 -121 120 -209 177 -346 225 -169 60 -372 75 -539 39z
	m425 -155 c93 -25 233 -98 307 -159 37 -31 90 -86 117 -123 117 -159 110 -156
	229 -76 156 105 311 150 482 140 271 -17 510 -178 626 -422 33 -68 64 -171 64
	-208 0 -10 13 -32 29 -47 28 -29 30 -29 112 -24 277 19 535 -162 619 -431 16
	-52 22 -96 22 -175 1 -91 -3 -116 -29 -190 -16 -47 -46 -111 -67 -142 -86
	-130 -234 -232 -381 -263 -105 -22 -3295 -22 -3400 0 -176 37 -335 163 -413
	325 -48 101 -62 163 -62 273 0 172 56 304 180 428 115 115 263 178 417 179 40
	0 58 5 81 25 28 23 29 29 35 128 25 401 293 702 697 781 50 9 276 -3 335 -19z
	m-1599 -3519 c28 -28 34 -42 34 -76 0 -34 -6 -48 -34 -76 -69 -69 -172 -31
	-183 69 -5 43 -3 49 30 82 29 29 42 35 77 35 34 0 48 -6 76 -34z m1253 19 c16
	-8 36 -31 46 -51 35 -74 -20 -154 -105 -154 -42 0 -75 21 -95 60 -19 37 -19
	63 0 100 28 54 98 75 154 45z m1671 0 c32 -17 60 -61 60 -95 0 -12 -7 -34 -14
	-49 -63 -120 -248 -44 -206 84 22 68 94 94 160 60z m1292 -14 c29 -26 33 -35
	33 -81 0 -46 -4 -55 -33 -81 -47 -43 -102 -41 -148 5 -28 28 -34 42 -34 76 0
	34 6 48 34 76 46 46 101 48 148 5z m-3332 -1 c16 -16 20 -33 20 -80 0 -104 12
	-100 -339 -100 l-300 0 -20 26 c-31 39 -29 117 4 149 l24 25 296 0 c282 0 296
	-1 315 -20z m2935 -5 c33 -32 35 -110 4 -149 l-20 -26 -300 0 c-351 0 -339 -4
	-339 100 0 104 -12 100 335 100 l296 0 24 -25z m-3851 -659 c44 -18 66 -52 66
	-101 0 -47 -19 -79 -60 -100 -37 -19 -54 -19 -96 1 -84 40 -83 157 0 198 39
	19 48 19 90 2z m1287 -9 c21 -14 39 -38 48 -63 12 -35 12 -44 -3 -76 -34 -72
	-125 -87 -180 -29 -52 54 -42 124 23 168 43 29 69 29 112 0z m1670 0 c66 -45
	75 -118 20 -171 -57 -55 -142 -37 -178 38 -14 31 -15 39 -2 73 16 41 68 83
	104 83 12 0 37 -10 56 -23z m1263 8 c83 -39 86 -158 6 -200 -37 -19 -63 -19
	-100 0 -41 21 -60 53 -60 100 0 48 21 82 64 101 40 17 51 17 90 -1z m-3304
	-15 c16 -16 20 -33 20 -82 0 -103 18 -98 -341 -98 -307 0 -308 0 -323 22 -24
	34 -21 119 5 152 l20 26 300 0 c286 0 300 -1 319 -20z m2942 3 c14 -12 18 -31
	18 -81 0 -107 18 -102 -333 -102 -354 0 -337 -5 -337 101 0 103 -14 99 339 99
	260 0 297 -2 313 -17z"/><path d = "M1944 4388 c-25 -12 -44 -48 -44 -82 0 -17 -7 -26 -27 -31 -15 -3
	-44 -15 -66 -25 -39 -19 -40 -19 -69 2 -54 38 -100 21 -172 -64 -42 -48 -44
	-66 -15 -118 l21 -37 -21 -41 c-12 -23 -21 -48 -21 -56 0 -18 -30 -36 -58 -36
	-39 0 -52 -31 -52 -123 0 -76 3 -89 22 -107 12 -11 34 -20 49 -20 32 0 35 -4
	66 -80 l23 -55 -25 -35 c-38 -55 -33 -75 38 -147 70 -69 90 -75 141 -44 l32
	20 67 -26 c47 -19 67 -32 67 -44 0 -64 53 -94 151 -87 69 5 95 24 104 77 6 35
	10 39 72 63 65 26 66 26 97 7 50 -30 72 -24 137 38 71 68 78 89 49 141 l-22
	40 25 63 c24 60 28 64 63 70 54 9 64 29 64 129 0 98 -9 113 -70 124 -33 6 -37
	10 -58 72 -22 62 -22 67 -7 91 32 48 23 79 -40 143 -32 32 -66 61 -77 63 -10
	3 -37 -5 -60 -17 l-41 -22 -46 23 c-25 12 -53 23 -62 23 -11 0 -18 13 -23 39
	-9 60 -43 81 -125 80 -36 0 -76 -5 -87 -11z m159 -402 c119 -43 182 -166 143
	-283 -63 -189 -334 -207 -417 -28 -41 88 -9 225 63 276 62 45 145 58 211 35z"/>
	<path d = "M3296 3824 c-9 -8 -16 -23 -16 -32 0 -25 -79 -55 -123 -47 -31 6 -40
	2 -76 -30 -43 -39 -51 -68 -30 -106 17 -32 -18 -107 -54 -115 -34 -7 -47 -31
	-47 -84 0 -53 13 -77 47 -84 21 -5 32 -17 46 -50 17 -40 17 -47 3 -74 -13 -26
	-13 -31 4 -59 33 -55 98 -81 127 -52 9 9 23 7 57 -7 35 -15 48 -27 60 -56 l14
	-38 60 0 c65 0 92 15 92 51 0 14 14 26 46 40 43 18 49 18 70 4 33 -22 39 -20
	89 26 47 44 55 70 31 105 -12 17 -12 26 6 67 11 26 27 47 34 47 32 0 54 39 54
	96 0 55 0 56 -39 71 -32 12 -42 24 -56 59 -12 32 -14 48 -6 63 19 34 12 56
	-28 95 -37 36 -42 38 -85 32 -55 -9 -126 22 -126 54 0 11 -9 24 -19 30 -31 16
	-117 12 -135 -6z m152 -284 c100 -61 96 -205 -8 -262 -94 -51 -215 23 -215 132 0 113 128 188 223 130z"/></g>
</svg>
